<svg width="24" height="24" viewBox="0 0 24 24" fill="none" xmlns="http://www.w3.org/2000/svg">
<g opacity="0.5">
<path fill-rule="evenodd" clip-rule="evenodd" d="M11.4167 7.25C9.11548 7.25 7.25 9.11548 7.25 11.4167C7.25 13.7179 9.11548 15.5833 11.4167 15.5833C12.5413 15.5833 13.5619 15.1378 14.3115 14.4135C14.3257 14.3945 14.3415 14.3762 14.3588 14.3588C14.3762 14.3415 14.3945 14.3257 14.4135 14.3115C15.1378 13.5619 15.5833 12.5413 15.5833 11.4167C15.5833 9.11548 13.7179 7.25 11.4167 7.25ZM15.4066 14.6995C16.1418 13.8069 16.5833 12.6633 16.5833 11.4167C16.5833 8.5632 14.2701 6.25 11.4167 6.25C8.5632 6.25 6.25 8.5632 6.25 11.4167C6.25 14.2701 8.5632 16.5833 11.4167 16.5833C12.6633 16.5833 13.8069 16.1418 14.6995 15.4066L16.8963 17.6035C17.0916 17.7987 17.4082 17.7987 17.6035 17.6035C17.7987 17.4082 17.7987 17.0916 17.6035 16.8963L15.4066 14.6995Z" fill="currentColor"/>
</g>
</svg>
