<svg xmlns="http://www.w3.org/2000/svg" xmlns:xlink="http://www.w3.org/1999/xlink"><defs>
<clipPath id="clip0_2_357">
<rect width="21.3333" height="21.3333" fill="white" transform="translate(5.33337 5.33334)"/>
</clipPath>

<clipPath id="clip0_2_354">
<rect width="21.3333" height="21.3333" fill="white" transform="translate(5.33337 5.33334)"/>
</clipPath>
</defs><symbol id="icon-cart" viewBox="0 0 18 18">
<path d="M6 1.5C5.05573 1.5 4.16656 1.94458 3.6 2.7L2.85 3.7C2.46053 4.21929 2.25 4.85089 2.25 5.5V15C2.25 15.3978 2.40804 15.7794 2.68934 16.0607C2.97064 16.342 3.35218 16.5 3.75 16.5H14.25C14.6478 16.5 15.0294 16.342 15.3107 16.0607C15.592 15.7794 15.75 15.3978 15.75 15V5.5C15.75 4.85089 15.5395 4.21929 15.15 3.7L14.4 2.7C13.8334 1.94458 12.9443 1.5 12 1.5H6Z" fill="currentColor"/>
<path fill-rule="evenodd" clip-rule="evenodd" d="M1.5 4.5C1.5 4.08579 1.83579 3.75 2.25 3.75H15.75C16.1642 3.75 16.5 4.08579 16.5 4.5C16.5 4.91421 16.1642 5.25 15.75 5.25H2.25C1.83579 5.25 1.5 4.91421 1.5 4.5Z" fill="white"/>
<path fill-rule="evenodd" clip-rule="evenodd" d="M6 6.75C6.41421 6.75 6.75 7.08579 6.75 7.5C6.75 8.09674 6.98705 8.66903 7.40901 9.09099C7.83097 9.51295 8.40326 9.75 9 9.75C9.59674 9.75 10.169 9.51295 10.591 9.09099C11.0129 8.66903 11.25 8.09674 11.25 7.5C11.25 7.08579 11.5858 6.75 12 6.75C12.4142 6.75 12.75 7.08579 12.75 7.5C12.75 8.49456 12.3549 9.44839 11.6517 10.1517C10.9484 10.8549 9.99456 11.25 9 11.25C8.00544 11.25 7.05161 10.8549 6.34835 10.1517C5.64509 9.44839 5.25 8.49456 5.25 7.5C5.25 7.08579 5.58579 6.75 6 6.75Z" fill="white"/>
</symbol><symbol id="icon-search" viewBox="0 0 24 24">
<g opacity="0.5">
<path fill-rule="evenodd" clip-rule="evenodd" d="M11.4167 7.25C9.11548 7.25 7.25 9.11548 7.25 11.4167C7.25 13.7179 9.11548 15.5833 11.4167 15.5833C12.5413 15.5833 13.5619 15.1378 14.3115 14.4135C14.3257 14.3945 14.3415 14.3762 14.3588 14.3588C14.3762 14.3415 14.3945 14.3257 14.4135 14.3115C15.1378 13.5619 15.5833 12.5413 15.5833 11.4167C15.5833 9.11548 13.7179 7.25 11.4167 7.25ZM15.4066 14.6995C16.1418 13.8069 16.5833 12.6633 16.5833 11.4167C16.5833 8.5632 14.2701 6.25 11.4167 6.25C8.5632 6.25 6.25 8.5632 6.25 11.4167C6.25 14.2701 8.5632 16.5833 11.4167 16.5833C12.6633 16.5833 13.8069 16.1418 14.6995 15.4066L16.8963 17.6035C17.0916 17.7987 17.4082 17.7987 17.6035 17.6035C17.7987 17.4082 17.7987 17.0916 17.6035 16.8963L15.4066 14.6995Z" fill="currentColor"/>
</g>
</symbol><symbol id="icon-telegram" viewBox="0 0 32 32">
<g opacity="0.5" clip-path="url(#clip0_2_357)">
<path d="M13.7042 18.8272L13.3513 23.7907C13.8562 23.7907 14.0749 23.5738 14.3371 23.3134L16.7042 21.0512L21.6091 24.6432C22.5086 25.1445 23.1424 24.8805 23.3851 23.8156L26.6046 8.72938L26.6055 8.72849C26.8909 7.39871 26.1246 6.87871 25.2482 7.20493L6.32375 14.4503C5.0322 14.9516 5.05175 15.6716 6.1042 15.9978L10.9424 17.5027L22.1806 10.4707C22.7095 10.1205 23.1904 10.3143 22.7949 10.6645L13.7042 18.8272Z" fill="#181A31"/>
</g>

</symbol><symbol id="icon-whatsapp" viewBox="0 0 32 32">
<g opacity="0.5" clip-path="url(#clip0_2_354)">
<path fill-rule="evenodd" clip-rule="evenodd" d="M23.0759 8.89609C21.2048 7.0228 18.7164 5.99069 16.0654 5.98959C10.6028 5.98959 6.15698 10.4353 6.15479 15.8994C6.15405 17.6461 6.61035 19.3512 7.47766 20.8541L6.07166 25.9896L11.3254 24.6114C12.7731 25.4011 14.4028 25.8172 16.0614 25.8177H16.0656C21.5276 25.8177 25.9739 21.3717 25.976 15.9073C25.977 13.2591 24.9471 10.7693 23.0759 8.89609ZM16.0654 24.144H16.062C14.584 24.1434 13.1344 23.7462 11.8695 22.9958L11.5688 22.8172L8.45117 23.6351L9.28332 20.5954L9.0874 20.2838C8.26282 18.9723 7.82739 17.4564 7.82812 15.9C7.82983 11.3584 11.5251 7.66342 16.0687 7.66342C18.2689 7.66415 20.3372 8.52206 21.8923 10.0791C23.4475 11.6361 24.3035 13.7057 24.3027 15.9067C24.3008 20.4487 20.6057 24.144 16.0654 24.144ZM20.5837 17.9747C20.3362 17.8507 19.1187 17.2518 18.8916 17.169C18.6648 17.0864 18.4995 17.0453 18.3346 17.2931C18.1694 17.5409 17.6949 18.0987 17.5504 18.2639C17.4059 18.4292 17.2616 18.4499 17.0139 18.3259C16.7662 18.202 15.9684 17.9404 15.0225 17.0968C14.2864 16.4402 13.7894 15.6292 13.6449 15.3814C13.5006 15.1334 13.6437 15.0123 13.7535 14.8761C14.0216 14.5432 14.29 14.1942 14.3726 14.029C14.4552 13.8637 14.4138 13.7191 14.3518 13.5952C14.29 13.4713 13.7948 12.2524 13.5885 11.7564C13.3873 11.2738 13.1833 11.339 13.0312 11.3314C12.887 11.3242 12.7218 11.3227 12.5566 11.3227C12.3916 11.3227 12.1233 11.3846 11.8962 11.6327C11.6693 11.8806 11.0297 12.4796 11.0297 13.6985C11.0297 14.9173 11.917 16.0948 12.0408 16.2601C12.1645 16.4254 13.787 18.9266 16.271 19.9991C16.8618 20.2545 17.323 20.4067 17.6827 20.5208C18.276 20.7093 18.8157 20.6827 19.2424 20.619C19.7183 20.5478 20.7074 20.0199 20.9139 19.4415C21.1202 18.863 21.1202 18.3673 21.0582 18.2639C20.9965 18.1606 20.8313 18.0987 20.5837 17.9747Z" fill="#181A31"/>
</g>

</symbol></svg>